<?xml version="1.0" standalone="no"?><!DOCTYPE svg PUBLIC "-//W3C//DTD SVG 1.1//EN" "http://www.w3.org/Graphics/SVG/1.1/DTD/svg11.dtd"><svg t="1545204230335" class="icon" style="" viewBox="0 0 1024 1024" version="1.1" xmlns="http://www.w3.org/2000/svg" p-id="13771" xmlns:xlink="http://www.w3.org/1999/xlink" width="200" height="200"><defs><style type="text/css"></style></defs><path d="M511.705288 398.075321c-31.087019 0-56.291051 25.206078-56.291051 56.293097 0 31.089066 25.201985 56.293097 56.291051 56.293097 31.091112 0 56.293097-25.204032 56.293097-56.293097C568.001455 423.281399 542.7964 398.075321 511.705288 398.075321L511.705288 398.075321 511.705288 398.075321 511.705288 398.075321zM286.533922 398.075321c-31.089066 0-56.295144 25.206078-56.295144 56.293097 0 31.089066 25.204032 56.293097 56.295144 56.293097 31.087019 0 56.291051-25.204032 56.291051-56.293097C342.825996 423.281399 317.620941 398.075321 286.533922 398.075321L286.533922 398.075321 286.533922 398.075321 286.533922 398.075321zM511.705288 80.780815c-248.715595 0-450.346825 155.974377-450.346825 373.587604 0 124.378775 66.007343 204.425879 168.880315 276.631388l0 199.311395 197.291388-119.701243c27.306926 4.504594 55.385425 7.115048 84.178191 7.115048 248.715595 0 450.350918-145.712663 450.350918-363.354542C962.055183 236.758262 760.422929 80.780815 511.705288 80.780815L511.705288 80.780815 511.705288 80.780815 511.705288 80.780815zM511.705288 761.433956c-32.874735 0-64.621786-3.820002-95.14701-10.337439l-132.500756 79.659271 1.77339-130.562615c-101.593839-61.07603-168.17935-131.36591-168.17935-245.824755 0-186.529277 176.425152-317.294506 394.053728-317.294506s394.055774 130.767276 394.055774 317.294506C905.761062 640.927371 729.333864 761.433956 511.705288 761.433956L511.705288 761.433956 511.705288 761.433956 511.705288 761.433956zM736.882793 398.075321c-31.089066 0-56.293097 25.206078-56.293097 56.293097 0 31.089066 25.204032 56.293097 56.293097 56.293097 31.084972 0 56.291051-25.204032 56.291051-56.293097C793.176914 423.281399 767.968789 398.075321 736.882793 398.075321L736.882793 398.075321 736.882793 398.075321 736.882793 398.075321z" p-id="13772" fill="#ffffff"></path></svg>