<?xml version="1.0" standalone="no"?><!DOCTYPE svg PUBLIC "-//W3C//DTD SVG 1.1//EN" "http://www.w3.org/Graphics/SVG/1.1/DTD/svg11.dtd"><svg t="1545204600178" class="icon" style="" viewBox="0 0 1024 1024" version="1.1" xmlns="http://www.w3.org/2000/svg" p-id="16360" xmlns:xlink="http://www.w3.org/1999/xlink" width="200" height="200"><defs><style type="text/css"></style></defs><path d="M780.572444 357.432889 664.007111 239.957333 317.098667 586.752 434.119111 703.943111Z" p-id="16361" fill="#ffffff"></path><path d="M237.340444 785.806222 396.856889 743.139556 280.064 626.232889Z" p-id="16362" fill="#ffffff"></path><path d="M899.356444 194.389333l-70.144-70.200889c-13.027556-12.970667-33.962667-12.970667-46.876444 0L735.573333 170.951111c-12.913778 12.913778-12.913778 33.848889 0 46.762667l70.200889 70.257778c12.913778 12.913778 33.792 12.913778 46.762667 0l46.762667-46.819556C912.213333 228.238222 912.213333 207.303111 899.356444 194.389333z" p-id="16363" fill="#ffffff"></path><path d="M843.776 810.439111c0 18.204444-14.734222 33.166222-33.052444 33.166222L214.186667 843.605333c-18.204444 0-33.109333-14.961778-33.109333-33.166222L181.077333 213.845333c0-18.204444 14.904889-33.109333 33.109333-33.109333l414.833778 0 66.218667-66.332444L214.186667 114.403556c-54.897778 0-99.441778 44.487111-99.441778 99.384889l0 596.593778c0 54.897778 44.487111 99.441778 99.441778 99.441778l596.536889 0c54.897778 0 99.441778-44.544 99.441778-99.441778L910.165333 321.308444l-66.389333 66.275556L843.776 810.439111z" p-id="16364" fill="#ffffff"></path></svg>