<svg t="1596502014579" class="icon" viewBox="0 0 1024 1024" version="1.1" xmlns="http://www.w3.org/2000/svg" p-id="987" width="200" height="200"><path d="M512.30521799 2.76833053c-281.23969195 0-509.23516359 227.98848114-509.23516359 509.22817422 0 281.24668245 227.99430656 509.23632867 509.23516359 509.23632867s509.23516359-227.98848114 509.23516359-509.23516359c0-281.24085703-227.99547165-509.22933931-509.23516359-509.2293393z m287.69703254 665.25045987c-21.61455559 18.53208803-49.68528669-61.01679445-53.71835734-48.7824475-9.83337643 29.76573895-14.44426411 49.65965824-43.40502073 82.06518272-1.5470592 1.73112206 33.48543715 14.38951197 43.40502073 41.41061803 9.49670457 25.89226667 27.98568903 66.91495595-92.98546119 79.78769749-70.98530475 7.55006691-122.27822819-37.82489088-127.39121152-37.3833728-9.47224121 0.83527225-5.2551077 0-15.43796963 0-8.33058589 0-8.88277447 0.60810581-16.72174934 0-2.1609893-0.15959837-25.75130738 37.3833728-131.25885838 37.3833728-81.78209906 0-102.9481472-51.47698631-86.50831758-79.78769749 16.45730475-28.3048869 43.89546553-36.54810055 40.02315832-41.03550294-19.04233813-22.06772338-32.18534855-45.67085511-40.02315832-66.99533767-1.94081337-5.30985984-3.56708921-10.47876039-4.84970269-15.44496014-2.97179705-11.38742499-25.74548309 66.86020267-50.18854741 48.7824475-24.44306432-18.07193088-22.26343481-64.06780814-6.43870038-108.09258439 15.96685881-44.38125113 56.17990542-87.11059797 56.62841174-96.5455599 1.60763677-35.10006329-3.46340807-40.93182293 0-50.15126812 7.71432562-20.64997376 17.10618397-12.73178226 17.1061851-23.44935879 0-134.99137138 100.32117646-244.42831189 224.066081-244.42831189 123.73908025 0 224.06142179 109.43694051 224.06142179 244.42831189 0 5.18171534 13.44356921 0 19.88226959 23.44935879 1.32571705 4.84271331 2.24020594 23.53439971 0.66868337 50.15126812-0.7490651 12.7865344 34.08189326 28.34682539 52.08509213 96.5455599 18.02882731 68.20455993 0 100.37010432-8.99926926 108.09258439z" fill="#68A5E1" p-id="988"></path></svg>