<?xml version="1.0" standalone="no"?><!DOCTYPE svg PUBLIC "-//W3C//DTD SVG 1.1//EN" "http://www.w3.org/Graphics/SVG/1.1/DTD/svg11.dtd"><svg class="icon" width="200px" height="200.00px" viewBox="0 0 1024 1024" version="1.1" xmlns="http://www.w3.org/2000/svg"><path fill="#333333" d="M734.208 628.8l236.032 0c1.792-16.384 2.56-33.088 2.56-50.176 0-80.192-21.504-155.456-59.136-220.288 38.848-103.296 37.504-190.976-14.528-243.392-49.472-49.28-182.272-41.28-332.416 25.216-11.136-0.832-22.336-1.28-33.664-1.28-206.08 0-378.944 141.824-426.688 332.864 64.64-82.752 132.608-142.784 223.488-186.432-8.256 7.744-56.448 55.68-64.576 63.744-239.552 239.488-315.072 552.32-233.792 633.6 61.76 61.76 173.76 51.328 302.4-11.648 59.776 30.464 127.488 47.616 199.232 47.616 193.152 0 356.8-124.288 416.064-297.472l-237.888 0c-32.704 60.352-96.768 101.504-170.24 101.504s-137.472-41.088-170.24-101.504c-14.528-27.264-22.912-58.56-22.912-91.648l0-0.704 386.24 0zM348.288 512.832c5.44-97.088 86.208-174.592 184.768-174.592s179.328 77.44 184.768 174.592l-369.536 0zM896.96 163.776c33.536 33.856 32.704 96.192 4.032 174.016-49.152-74.88-120.512-133.952-204.8-167.616 90.112-38.656 163.392-43.776 200.768-6.4zM93.504 967.232c-42.752-42.816-29.888-132.608 25.216-240.832 34.304 96.256 101.184 177.088 187.328 229.184-95.424 43.328-173.568 50.688-212.544 11.648z" /></svg>