<?xml version="1.0" standalone="no"?><!DOCTYPE svg PUBLIC "-//W3C//DTD SVG 1.1//EN" "http://www.w3.org/Graphics/SVG/1.1/DTD/svg11.dtd"><svg t="1545204794260" class="icon" style="" viewBox="0 0 1024 1024" version="1.1" xmlns="http://www.w3.org/2000/svg" p-id="23564" xmlns:xlink="http://www.w3.org/1999/xlink" width="200" height="200"><defs><style type="text/css"></style></defs><path d="M877.9348195555555 1006.1644989629629h-732.0613925925926c-54.612119703703705 0-99.04188681481483-44.42855348148148-99.04188681481483-99.03945955555555V122.8957771851853c0-54.61090607407407 44.42855348148148-99.03945955555555 99.04067318518518-99.03945955555555h732.0626062222221c54.61333333333334 0 99.04067318518518 44.42855348148148 99.04067318518518 99.03945955555555v784.229262222222c0 54.61090607407407-44.42855348148148 99.03945955555555-99.04067318518518 99.03945955555555z m-732.0613925925926-920.2116077037036c-20.371986962962964 0-36.945313185185185 16.57332622222222-36.945313185185185 36.94288592592592v784.229262222222c0 20.369559703703704 16.57332622222222 36.94288592592592 36.94409955555555 36.94288592592592h732.0626062222221c20.371986962962964 0 36.945313185185185-16.57332622222222 36.945313185185185-36.94288592592592V122.8957771851853c0-20.369559703703704-16.57332622222222-36.94288592592592-36.945313185185185-36.94288592592592h-732.0613925925926z" fill="#ffffff" p-id="23565"></path><path d="M266.26669985185185 368.4943644444445h-1.8519988148148145c-17.14858666666667 0-31.04828681481481-13.90091377777778-31.04828681481481-31.04828681481481s13.90091377777778-31.047073185185184 31.04828681481481-31.047073185185184h1.8519988148148145c17.14858666666667 0 31.04828681481481 13.899700148148147 31.04828681481481 31.047073185185184s-13.90091377777778 31.04828681481481-31.04828681481481 31.04828681481481zM750.8617291851851 368.4943644444445H378.6730761481481c-17.147373037037035 0-31.04828681481481-13.90091377777778-31.04828681481481-31.04828681481481s13.90091377777778-31.047073185185184 31.04828681481481-31.047073185185184h372.1874394074074c17.14858666666667 0 31.047073185185184 13.899700148148147 31.047073185185184 31.047073185185184s-13.899700148148147 31.04828681481481-31.045859555555552 31.04828681481481zM750.8617291851851 542.3795768888889H378.6730761481481c-17.147373037037035 0-31.04828681481481-13.90091377777778-31.04828681481481-31.04828681481481s13.90091377777778-31.047073185185184 31.04828681481481-31.047073185185184h372.1874394074074c17.14858666666667 0 31.047073185185184 13.90091377777778 31.047073185185184 31.047073185185184s-13.899700148148147 31.04828681481481-31.045859555555552 31.04828681481481zM750.8617291851851 710.0558601481481H378.6730761481481c-17.147373037037035 0-31.04828681481481-13.90091377777778-31.04828681481481-31.04828681481481s13.90091377777778-31.04828681481481 31.04828681481481-31.04828681481481h372.1874394074074c17.14858666666667 0 31.047073185185184 13.90091377777778 31.047073185185184 31.04828681481481s-13.899700148148147 31.04828681481481-31.045859555555552 31.04828681481481zM266.26669985185185 537.4121908148148h-1.8519988148148145c-17.14858666666667 0-31.04828681481481-13.90091377777778-31.04828681481481-31.04828681481481s13.90091377777778-31.047073185185184 31.04828681481481-31.047073185185184h1.8519988148148145c17.14858666666667 0 31.04828681481481 13.899700148148147 31.04828681481481 31.047073185185184s-13.90091377777778 31.04828681481481-31.04828681481481 31.04828681481481zM266.26669985185185 706.3288035555555h-1.8519988148148145c-17.14858666666667 0-31.04828681481481-13.90091377777778-31.04828681481481-31.04828681481481s13.90091377777778-31.047073185185184 31.04828681481481-31.047073185185184h1.8519988148148145c17.14858666666667 0 31.04828681481481 13.899700148148147 31.04828681481481 31.047073185185184s-13.90091377777778 31.04828681481481-31.04828681481481 31.04828681481481z" fill="#ffffff" p-id="23566"></path></svg>