<?xml version="1.0" standalone="no"?><!DOCTYPE svg PUBLIC "-//W3C//DTD SVG 1.1//EN" "http://www.w3.org/Graphics/SVG/1.1/DTD/svg11.dtd"><svg t="1545187997809" class="icon" style="" viewBox="0 0 1024 1024" version="1.1" xmlns="http://www.w3.org/2000/svg" p-id="7173" xmlns:xlink="http://www.w3.org/1999/xlink" width="200" height="200"><defs><style type="text/css"></style></defs><path d="M452 994.016q20 23.008 49.504 23.008t49.504-23.008q4.992-4.992 15.008-16 19.008-20.992 39.008-44.992 64-76 116.992-150.016 58.016-80.992 96.992-152Q896 494.016 896 402.016q0-108.992-52.992-201.504T699.52 54.016 501.504 0 303.008 54.016 159.52 200.512t-52.512 201.504q0 92 76.992 230.016 39.008 70.016 96.992 151.008 52.992 74.016 116.992 150.016 20 24 39.008 44.992 10.016 11.008 15.008 16.992v-0.992z m35.008-33.024q-4.992-4.992-14.016-16-19.008-20-38.016-43.008-63.008-75.008-116-148-56-78.016-94.016-146.016-70.016-127.008-70.016-206.016 0-96 46.016-177.504t126.016-128.512 174.496-47.008 174.016 47.008 126.016 128.512 46.496 177.504q0 79.008-70.016 204.992-38.016 68-94.016 147.008-52.992 72.992-116 147.008-19.008 24-38.016 44-8.992 10.016-14.016 16-6.016 7.008-14.496 7.488t-14.496-6.496v-0.992z m228-493.984q14.016-36.992 14.016-76.992 0-91.008-63.488-155.008t-152.512-64-152 64-63.008 155.008 63.008 155.488 152 64.512q54.016 0 100.992-26.016 8.992-4.992 12-14.496t-1.504-18.496-14.016-12-18.496 2.016q-36.992 20-79.008 20-68.992 0-118.016-50.016t-48.992-120.992 48.992-120.992 118.496-50.016 118.496 50.016 48.992 120.992q0 31.008-11.008 60-3.008 8.992 0.992 18.496t12.992 12.992 18.016-0.992 12.992-13.504z" fill="" p-id="7174"></path></svg>