<?xml version="1.0" standalone="no"?><!DOCTYPE svg PUBLIC "-//W3C//DTD SVG 1.1//EN" "http://www.w3.org/Graphics/SVG/1.1/DTD/svg11.dtd"><svg t="1545206018942" class="icon" style="" viewBox="0 0 1024 1024" version="1.1" xmlns="http://www.w3.org/2000/svg" p-id="39213" xmlns:xlink="http://www.w3.org/1999/xlink" width="200" height="200"><defs><style type="text/css"></style></defs><path d="M905.482074 739.505809l-66.902186-51.55178c-11.768645-9.977764-7.547283-11.384884-7.547283-26.351531V414.333042c0-41.574016-19.315928-84.171393-35.945534-122.419488-15.094566-36.585134-38.503935-69.844347-66.902187-98.114678-28.398251-28.270331-61.913304-49.888819-98.754278-66.518426-13.431605-4.988882-14.071205-6.140162-29.037851-9.466084V84.810993c0-43.236977-47.842099-82.380512-91.334916-82.380512-43.492817 0-89.927795 39.143535-89.927795 82.380512v33.003373c-13.431605 3.325921-17.141287 4.477202-30.572892 9.466084-36.840974 14.966646-70.228107 38.248095-98.754279 66.518426-28.398251 28.270331-50.14466 61.529544-66.902186 98.114678-16.757527 38.248095-34.410493 80.845472-34.410493 122.419488v247.141536c0 14.966646 2.686321 18.036727-9.082324 26.351531L112.505684 739.377889c-9.977764 9.977764-18.420487 23.281449-23.409369 39.911055-3.325921 13.303685-3.325921 28.270331 1.66296 43.236977 4.988882 13.303685 13.431605 26.60737 25.07233 34.922174 13.431605 9.977764 22.897689 18.036727 39.655216 18.036727h708.549157c16.757527 0 28.142411-8.058963 41.446096-18.036727 11.768645-8.314803 20.083448-21.618488 25.072329-34.922174 4.988882-13.303685 4.988882-28.270331 1.662961-43.236977-4.988882-14.838726-13.303685-29.805372-26.73529-39.783135z m-100.289319-8.314803l66.902186 51.55178c8.314803 6.651843 8.314803 14.966646 6.651842 19.955528-1.662961 6.651843-6.396002 7.035603-14.710805 7.035602H155.486821c-9.977764 0-9.594004-2.046721-11.256965-7.035602-1.662961-6.651843-1.662961-14.966646 6.651843-19.955528l66.902186-51.55178c25.07233-19.955528 36.457214-54.493941 36.457214-86.090194V414.333042c0-139.816615 117.430606-255.58426 258.014741-255.58426 140.584135 0 254.305059 113.081324 254.305059 252.897939l-1.53504 233.326171c-1.535041 33.387133 13.303685 67.925547 40.166896 86.218114zM510.7208 57.308182c13.431605 0 23.793129 14.199126 23.793129 27.502811l-0.38376 15.734166-48.993379 0.639601V84.810993c-0.12792-13.303685 12.152405-27.502811 25.58401-27.502811z m-103.743161 863.588258c0 56.540662 46.818738 103.10356 103.743161 103.10356 56.924422 0 103.743161-46.562898 103.74316-103.10356v-1.662961H406.977639v1.662961zM237.995253 127.15253c4.988882-4.988882 9.977764-11.640725 9.977764-18.292567 0-6.651843-1.662961-14.966646-6.651843-19.955528-4.988882-6.651843-13.431605-9.977764-21.746408-9.977764-6.651843 0-11.768645 1.662961-16.757527 6.651842-48.481699 39.911056-90.311555 88.136914-120.500687 141.479576-31.724172 56.540662-50.14466 118.070206-58.587383 181.390631-1.662961 14.966646 9.977764 28.270331 25.07233 29.933291h3.325921c13.431605 0 25.07233-9.977764 26.735291-24.94441C92.422236 301.891318 149.346658 198.787758 237.995253 127.15253z m699.338913 99.905559c-30.061212-54.877701-70.228107-103.10356-120.500687-141.479576-4.988882-3.325921-11.768645-6.651843-16.757526-6.651842-8.314803 0-16.757527 3.325921-21.746409 9.977764-9.977764 11.640725-8.314803 28.270331 3.325921 38.248095 88.648595 71.507308 145.573017 173.075828 158.876702 286.157151 1.662961 13.303685 13.431605 24.94441 26.735291 24.94441h3.325921c6.651843 0 13.431605-4.988882 18.420487-9.977764 4.988882-4.988882 6.651843-13.303685 6.651843-19.955527-6.523923-63.192505-26.60737-124.722049-58.331543-181.262711z m0 0" p-id="39214" fill="#ffffff"></path></svg>