<?xml version="1.0" encoding="utf-8"?>
<!-- Generator: Adobe Illustrator 22.0.0, SVG Export Plug-In . SVG Version: 6.00 Build 0)  -->
<svg version="1.1" id="图层_1" xmlns="http://www.w3.org/2000/svg" xmlns:xlink="http://www.w3.org/1999/xlink" x="0px" y="0px"
	 viewBox="0 0 200 200" style="enable-background:new 0 0 200 200;" xml:space="preserve">
<style type="text/css">
	.st0{fill:#FFFFFF;}
</style>
<path class="st0" d="M101.1,13.2c-3.2,0-5.8,2.6-5.8,5.7c0,3.2,2.6,5.7,5.8,5.7c3.2,0,5.8-2.6,5.8-5.7S104.3,13.2,101.1,13.2z
	 M24.9,157.9c-0.1,0.2-0.1,0.7-0.1,1.1c0,2.3,1.7,4.1,3.8,4.1h144.7c2.1,0,3.8-1.9,3.8-4.1c0-0.6,0-0.9-0.1-1.1l-18.8-22
	c-1.4-1.4-1.4-3-1.4-4V94.5c0-31.2-25-56.5-55.6-56.5S45.5,63.4,45.5,94.5v37.3c0,1.3-0.6,3.2-1.5,4.1L24.9,157.9z M83.7,176
	c2.7,6.7,9.4,11.1,17.4,11.1c7.4,0,14.2-4.5,17.2-11.1H83.7z M101.1,200c-14.6,0-27.6-10.2-31.1-24H28.7c-9.2,0-16.8-7.6-16.8-17
	c0-2.9,0.5-5,1.6-7.1v-0.3l0.9-1.4L32.3,129V94.2c0-32.1,21.1-59.2,51.7-67.4c-1.3-2.6-1.9-5.4-1.9-8.2C82.1,8.3,90.6,0,100.9,0
	s18.8,8.3,18.8,18.6c0,2.9-0.7,5.6-1.9,8.2c30.1,7.6,51.7,35.5,51.7,67.4V129l17.9,21.2c0.5,0.5,0.8,0.9,0.9,1.8
	c0.8,2.1,1.7,4.3,1.7,7.1c0,9.4-7.5,17-16.8,17H132C128.7,190.3,116.2,200,101.1,200L101.1,200z"/>
</svg>
