<?xml version="1.0" encoding="utf-8"?>
<!-- Generator: Adobe Illustrator 22.0.0, SVG Export Plug-In . SVG Version: 6.00 Build 0)  -->
<svg version="1.1" id="图层_1" xmlns="http://www.w3.org/2000/svg" xmlns:xlink="http://www.w3.org/1999/xlink" x="0px" y="0px"
	 viewBox="0 0 32 32" style="enable-background:new 0 0 32 32;" xml:space="preserve">
<style type="text/css">
	.st0{fill:#FFFFFF;}
</style>
<path class="st0" d="M30.7,30.5c-0.3,0-0.6-0.1-0.9-0.4L23,23.4c-0.1-0.1-0.1-0.2-0.2-0.3c-0.1-0.2-0.1-0.3-0.2-0.5
	c0-0.2,0-0.4,0.1-0.5c0-0.1,0.1-0.2,0.2-0.3c1.6-2.3,2.3-5,1.9-7.7c-0.7-6.2-6.3-10.6-12.5-9.9C9.4,4.5,6.7,6,4.9,8.4
	c-1.9,2.4-2.7,5.3-2.3,8.3c0.3,3,1.8,5.6,4.2,7.5C9.1,26,12,26.9,15,26.5c1.4-0.2,2.8-0.6,4-1.2c0.6-0.3,1.3-0.1,1.6,0.5
	c0.3,0.6,0.1,1.3-0.5,1.6c-1.5,0.8-3.1,1.3-4.9,1.5c-3.6,0.4-7.2-0.6-10.1-2.9c-2.9-2.3-4.7-5.5-5.1-9.1S0.7,9.7,3,6.9
	s5.5-4.7,9.1-5.1c3.6-0.4,7.2,0.6,10.1,2.9s4.7,5.5,5.1,9.1c0.3,3-0.3,6-1.8,8.6l6.1,6.1c0.5,0.5,0.5,1.2,0,1.7
	C31.3,30.4,31,30.5,30.7,30.5z"/>
</svg>
